<svg width="326" height="84" viewBox="0 0 326 84" fill="none" xmlns="http://www.w3.org/2000/svg">
<path d="M32.0943 31.1743V62.0636C32.0943 64.6925 31.5283 67.0476 30.3965 69.1287C29.3011 71.2465 27.658 72.9078 25.4673 74.1127C23.3131 75.3176 20.7207 75.92 17.6902 75.92C14.7327 75.92 12.1221 75.774 9.85831 75.4819C7.59455 75.1898 5.47684 74.6786 3.50518 73.9484V65.1854C5.44033 65.9887 7.39373 66.5729 9.36539 66.938C11.3371 67.3031 13.1079 67.4857 14.6779 67.4857C17.4163 67.4857 19.4063 66.9745 20.6477 65.9522C21.9256 64.9298 22.5646 63.4511 22.5646 61.516V59.0514C19.9722 61.023 17.1973 62.0089 14.2398 62.0089C9.89482 62.0089 6.42616 60.7309 3.83379 58.1751C1.27793 55.5827 0 51.5664 0 46.126C0 42.6939 0.602452 39.7912 1.80736 37.4179C3.04877 35.0446 4.72834 33.2737 6.84605 32.1053C9.00027 30.9004 11.4648 30.298 14.2398 30.298C17.1973 30.298 19.9722 31.2838 22.5646 33.2555V31.1743H32.0943ZM16.321 53.5745C18.4022 53.5745 20.4834 52.826 22.5646 51.329V40.9778C20.4834 39.4808 18.4022 38.7323 16.321 38.7323C14.2033 38.7323 12.5967 39.3713 11.5014 40.6492C10.4425 41.8906 9.91308 43.7162 9.91308 46.126C9.91308 48.8645 10.4242 50.7996 11.4466 51.9315C12.5054 53.0269 14.1302 53.5745 16.321 53.5745Z" fill="#74B776"/>
<path d="M58.9607 30.517V38.9514H57.701C54.8896 38.9514 52.0782 39.9555 49.2667 41.9636V62.1732H39.737V31.1743H49.2667V33.9127C50.6177 32.7808 51.9686 31.941 53.3196 31.3933C54.707 30.8091 56.1675 30.517 57.701 30.517H58.9607Z" fill="#74B776"/>
<path d="M72.7718 49.6312C73.1734 51.3838 73.9949 52.753 75.2363 53.7388C76.5143 54.7247 78.3764 55.2176 80.8227 55.2176C82.2467 55.2176 83.5976 55.0533 84.8756 54.7247C86.19 54.3595 87.687 53.7571 89.3666 52.9173L91.8312 60.2563C89.9325 61.3151 88.0521 62.0454 86.19 62.447C84.3279 62.8852 82.1006 63.1042 79.5083 63.1042C75.8936 63.1042 72.8083 62.4288 70.2524 61.0778C67.7331 59.6903 65.8162 57.7552 64.5017 55.2724C63.1873 52.7895 62.5301 49.9051 62.5301 46.6189C62.5301 43.1868 63.2056 40.2476 64.5565 37.8012C65.9075 35.3184 67.7331 33.4563 70.0333 32.2149C72.3336 30.9369 74.9077 30.298 77.7557 30.298C82.3197 30.298 85.8979 31.6307 88.4903 34.2961C91.0827 36.9249 92.3788 40.777 92.3788 45.8522V49.6312H72.7718ZM77.7557 38.1846C76.4412 38.1846 75.3641 38.5132 74.5244 39.1705C73.7211 39.8277 73.1551 40.9595 72.8265 42.5661H82.3562C82.2102 41.0326 81.7538 39.919 80.987 39.2252C80.2568 38.5315 79.1797 38.1846 77.7557 38.1846Z" fill="#74B776"/>
<path d="M106.2 49.6312C106.601 51.3838 107.423 52.753 108.664 53.7388C109.942 54.7247 111.804 55.2176 114.251 55.2176C115.675 55.2176 117.026 55.0533 118.304 54.7247C119.618 54.3595 121.115 53.7571 122.795 52.9173L125.259 60.2563C123.36 61.3151 121.48 62.0454 119.618 62.447C117.756 62.8852 115.529 63.1042 112.936 63.1042C109.322 63.1042 106.236 62.4288 103.68 61.0778C101.161 59.6903 99.2441 57.7552 97.9297 55.2724C96.6153 52.7895 95.958 49.9051 95.958 46.6189C95.958 43.1868 96.6335 40.2476 97.9845 37.8012C99.3354 35.3184 101.161 33.4563 103.461 32.2149C105.762 30.9369 108.336 30.298 111.184 30.298C115.748 30.298 119.326 31.6307 121.918 34.2961C124.511 36.9249 125.807 40.777 125.807 45.8522V49.6312H106.2ZM111.184 38.1846C109.869 38.1846 108.792 38.5132 107.952 39.1705C107.149 39.8277 106.583 40.9595 106.255 42.5661H115.784C115.638 41.0326 115.182 39.919 114.415 39.2252C113.685 38.5315 112.608 38.1846 111.184 38.1846Z" fill="#74B776"/>
<path d="M149.486 30.517C153.612 30.517 156.697 31.5576 158.742 33.6388C160.787 35.72 161.809 39.0244 161.809 43.5519V62.1732H152.279V43.5519C152.279 42.0549 151.896 40.923 151.129 40.1563C150.399 39.353 149.139 38.9514 147.35 38.9514C145.232 38.9514 143.06 39.8277 140.833 41.5803V62.1732H131.303V31.1743H140.833V33.6388C142.184 32.58 143.553 31.795 144.94 31.2838C146.364 30.7726 147.879 30.517 149.486 30.517Z" fill="#74B776"/>
<path fill-rule="evenodd" clip-rule="evenodd" d="M230.856 53.9739C232.244 56.6702 234.288 58.8113 236.974 60.3912L236.98 60.3948C239.684 61.9454 242.955 62.7033 246.763 62.7033C250.534 62.7033 253.785 61.9449 256.488 60.3948L256.494 60.3912C259.181 58.8105 261.208 56.6671 262.558 53.967C263.9 51.2833 264.564 48.2759 264.564 44.9584C264.564 41.6775 263.9 38.6893 262.558 36.0067C261.208 33.3061 259.18 31.1807 256.491 29.6377C253.788 28.0483 250.535 27.2704 246.763 27.2704C242.954 27.2704 239.682 28.0477 236.977 29.6376C234.29 31.1798 232.244 33.303 230.856 35.9998L230.853 36.0067C229.511 38.6893 228.847 41.6775 228.847 44.9584C228.847 48.2759 229.511 51.2833 230.853 53.967L230.856 53.9739ZM252.94 44.9584C252.94 47.6891 252.367 49.6657 251.317 50.9858L251.311 50.994C250.321 52.2803 248.844 52.9589 246.763 52.9589C244.639 52.9589 243.12 52.2774 242.094 50.9858C241.044 49.6657 240.471 47.6891 240.471 44.9584C240.471 42.2681 241.043 40.3093 242.094 38.9879C243.12 37.6963 244.639 37.0148 246.763 37.0148C248.844 37.0148 250.321 37.6934 251.311 38.9797L251.317 38.9879C252.368 40.3093 252.94 42.2681 252.94 44.9584ZM286.821 61.735H298.047V42.1104C298.047 39.1764 297.681 36.7151 296.92 34.7529C296.127 32.7082 294.531 31.1191 292.221 29.9629C289.918 28.7527 286.623 28.1817 282.409 28.1817C282.409 28.1817 271.92 28.2168 268.927 30.3724V39.4828C268.927 39.7689 269.276 39.9285 269.51 39.7637C273.37 37.0454 281.555 37.6411 281.555 37.6411C283.495 37.8739 284.177 38.1578 284.828 38.429C284.888 38.4541 284.948 38.479 285.008 38.5038L285.018 38.5075C285.783 38.8072 286.182 39.1978 286.358 39.6266L286.367 39.6488L286.378 39.6703C286.522 39.9592 286.638 40.3319 286.717 40.798C284.661 39.937 282.27 39.5166 279.561 39.5166C275.696 39.5166 272.581 40.4742 270.3 42.4702L270.295 42.4741C268.035 44.488 266.943 47.3438 266.943 50.9391C266.943 54.4962 268.015 57.3617 270.224 59.4482L270.233 59.4566C272.475 61.4943 275.517 62.4755 279.276 62.4755C280.903 62.4755 282.408 62.2174 283.783 61.6917L283.791 61.6887L283.799 61.6855C284.809 61.2695 285.816 60.6635 286.821 59.8768V61.735ZM287.478 41.8823C287.258 41.7665 287.033 41.6566 286.803 41.5526C284.772 40.6334 282.358 40.1738 279.561 40.1738C282.675 40.1738 285.314 40.7432 287.478 41.8823C287.478 41.8824 287.478 41.8822 287.478 41.8823ZM283.548 61.0778C284.626 60.634 285.717 59.9521 286.821 59.032C287.04 58.85 287.259 58.6587 287.478 58.4581C286.149 59.6732 284.839 60.5462 283.548 61.0778ZM279.158 48.6738L279.166 48.6677L279.174 48.6613C279.778 48.1783 280.676 47.8939 281.953 47.8939C283.582 47.8939 285.203 48.2483 286.821 48.9671V51.2514C284.857 52.8076 283.048 53.5285 281.384 53.5285C280.245 53.5285 279.479 53.2952 278.992 52.9232C278.582 52.6095 278.282 51.9869 278.282 50.8251C278.282 49.7532 278.609 49.0855 279.158 48.6738ZM317.163 49.629C317.163 50.8821 317.372 51.7745 317.79 52.3061C318.207 52.7998 318.967 53.0466 320.068 53.0466C320.068 53.0466 320.068 53.0466 320.068 53.0466C318.967 53.0466 318.207 52.7998 317.79 52.3061C317.372 51.7745 317.163 50.8821 317.163 49.629ZM323.429 52.591V61.0209C323.429 61.0208 323.428 61.0209 323.429 61.0209V52.591C323.429 52.591 323.428 52.5911 323.429 52.591ZM320.068 52.3893C319.041 52.3893 318.531 52.1559 318.299 51.8903C318.026 51.5352 317.821 50.8334 317.821 49.629V39.407H325.112V29.3209H317.821V18.4987H306.595V29.3209H302.153V39.407H306.595V53.2174C306.595 56.1237 307.456 58.4475 309.26 60.0837L309.266 60.0887C311.106 61.7193 313.817 62.4755 317.277 62.4755C318.329 62.4755 319.311 62.3981 320.222 62.2406C321.153 62.1237 322.267 61.931 323.562 61.6645L324.086 61.5565V51.701L323.236 51.9627C322.323 52.2436 321.269 52.3893 320.068 52.3893Z" fill="#3A7D55"/>
<path fill-rule="evenodd" clip-rule="evenodd" d="M198.856 46.3164C188.366 46.3164 184.17 36.5466 184.17 28.8703C184.17 26.7834 184.429 24.5932 185.03 22.5103C184.742 22.3521 184.461 22.1721 184.187 21.9684C181.894 20.2648 180.796 17.3929 180.088 14.189L179.494 11.4999L182.183 10.9055C185.057 10.2704 187.977 10.2217 190.405 11.9494C191.078 12.4285 191.656 13.005 192.156 13.6624C194.123 12.7389 196.479 12.1222 198.856 12.1222C207.125 12.1222 211.419 13.4664 219.344 20.2161C219.721 20.5372 220.288 20.2457 220.2 19.7584C219.173 14.0653 215.003 10.3582 215.003 10.3582C206.376 1.74945 195.292 -1.50681 180.063 0.640278C169.567 2.12015 160.727 7.4673 155.114 16.492C154.927 16.7926 154.975 17.1825 155.226 17.4325L158.296 20.4964C159.043 20.4964 159.741 20.4965 160.394 20.5011C162.08 20.5131 163.461 20.5562 164.59 20.7107C168.747 21.2797 170.883 23.3599 170.883 30.9641V83.2345C170.883 83.6641 171.234 83.9957 171.664 83.9904L176.478 83.9314L182.509 63.7627L183.264 60.0491L183.264 60.0495L184.17 55.5861C185.485 56.5063 186.881 57.2896 188.328 57.9311C189.396 58.404 190.491 58.7997 191.601 59.1162C197.8 60.8828 204.486 60.1824 209.54 56.6611L210.259 63.7627L219.835 84H225.818C226.327 84 226.696 83.5162 226.562 83.0256L223.369 71.3416L222.632 68.6476L225.43 51.2015L225.43 50.4081L225.43 40.7337C225.43 38.6399 224.73 32.6804 217.038 32.6804H202.396C202.027 32.6804 201.761 33.0352 201.886 33.3826C202.82 35.9888 205.272 40.7337 209.346 40.7337C209.346 40.7337 205.15 46.3164 198.856 46.3164ZM191.982 20.3687C189.344 20.9517 187.434 20.8407 186.009 19.8846L186.009 19.8847C184.942 19.1688 184.147 17.9787 183.523 16.251C183.243 15.4757 182.998 14.5922 182.777 13.5947C183.787 13.3715 184.699 13.2534 185.524 13.254C186.397 13.2546 187.172 13.3882 187.86 13.671C189.872 14.4967 191.148 16.5949 191.982 20.3687ZM171.184 11.0866C171.184 12.2934 170.206 13.2718 168.999 13.2718C167.792 13.2718 166.814 12.2934 166.814 11.0866C166.814 9.87977 167.792 8.90144 168.999 8.90144C170.206 8.90144 171.184 9.87977 171.184 11.0866ZM183.824 68.9778L184.716 83.1762C184.75 83.7237 185.329 84.0612 185.823 83.8214L190.106 81.7395L191.715 61.9936C189.785 61.5104 187.896 60.8161 186.1 59.9237L185.184 64.4327L183.824 68.9778ZM231.976 79.4693L227.217 74.9755L225.446 68.4957L227.224 57.4051L228.585 63.0652L236.021 74.5222L233.167 79.3038C232.915 79.7274 232.335 79.808 231.976 79.4693ZM161.244 23.4984L161.25 23.2542L161.374 23.255C163.059 23.267 164.281 23.3113 165.216 23.4393C165.361 23.4591 165.498 23.4805 165.628 23.5034V32.9383C161.008 32.9383 161.173 26.359 161.244 23.4984Z" fill="#3A7D55"/>
</svg>
