<svg width="35" height="35" viewBox="0 0 35 35" fill="none" xmlns="http://www.w3.org/2000/svg">
<path d="M12.3828 32.7698L11.6325 20.822L15.289 21.7798L14.4384 32.2219L12.8049 33.0159C12.6167 33.1073 12.3959 32.9786 12.3828 32.7698Z" fill="#3E9362"/>
<path d="M29.1125 25.1002L27.947 20.2506L22.9823 23.2463L24.1313 25.431L30.4058 31.3561C30.5426 31.4852 30.7638 31.4545 30.8602 31.2929L31.9483 29.4694L29.1125 25.1002Z" fill="#3E9362"/>
<path d="M24.6692 5.67265H17.7751C15.9432 5.67265 14.6519 6.31035 13.7748 7.26986C13.3471 7.73769 13.0179 8.28203 12.7724 8.86626C12.3488 9.87469 12.1747 11.0019 12.1747 12.0597C12.1747 14.9871 13.7748 18.7129 17.7751 18.7129C20.1753 18.7129 21.7755 16.5839 21.7755 16.5839C20.0687 16.5839 19.1086 14.8098 18.8419 13.9227H24.709C27.6426 13.9227 27.9093 15.7854 27.9093 16.5839V20.5759L26.8426 27.2291L28.4427 33.0839H25.7758L22.1236 25.3662L21.8495 22.6579C19.1086 24.5678 15.3869 24.273 12.0433 22.2193L11.9512 25.3662L9.24109 33.0577L7.10758 33.0839V12.8582C7.10758 9.95826 6.5501 9.24877 4.96475 9.03176V13.0228C3.36462 13.0228 2.86422 11.9725 2.86422 8.86626C2.61538 8.86448 2.59212 8.86626 2.30718 8.86626L0.97374 7.53554C5.50745 -1.53888 19.0688 0.0840703 24.6692 5.67265Z" fill="#3E9362"/>
<path d="M17.7752 18.7129C13.7749 18.7129 12.1747 14.9872 12.1747 12.0598C12.1747 11.002 12.3488 9.87473 12.7725 8.8663C13.018 8.28208 13.3472 7.73774 13.7749 7.2699C14.5381 6.43495 16.1432 5.6727 17.7752 5.6727C20.9286 5.6727 22.5661 6.18533 25.5886 8.7594C25.7324 8.88183 25.9485 8.77067 25.9149 8.58485C25.5233 6.41371 23.9329 5.00001 23.9329 5.00001C20.6429 1.71697 16.4159 0.475171 10.6084 1.29398C6.60562 1.85834 3.23435 3.89752 1.0937 7.33918C1.0224 7.45381 1.04084 7.6025 1.13639 7.69785L2.30723 8.8663C2.59216 8.8663 2.85846 8.8663 3.1073 8.86808C3.75044 8.87266 4.27699 8.8891 4.70743 8.94802C6.29278 9.16502 7.10763 9.9583 7.10763 12.8582V32.792C7.10763 32.9558 7.2415 33.0823 7.40531 33.0803L9.24114 33.0578L11.5413 25.3662L12.1747 22.248C15.1083 24.3017 19.1086 24.5679 21.8496 22.658L22.1237 25.3662L25.7759 33.0839H28.0575C28.2515 33.0839 28.3923 32.8994 28.3412 32.7123L26.8426 27.2291L27.9094 20.5759V16.5839C27.9094 15.7854 27.6427 13.5128 24.7091 13.5128H19.1251C18.9844 13.5128 18.8831 13.6481 18.9306 13.7806C19.2871 14.7744 20.222 16.5839 21.7755 16.5839C21.7755 16.5839 20.1754 18.7129 17.7752 18.7129Z" fill="#3E9362"/>
<path fill-rule="evenodd" clip-rule="evenodd" d="M1.87285 9.91656L0.394519 8.44125C-0.0406681 8.00696 -0.13208 7.32141 0.201889 6.78447L1.09372 7.33917C1.02242 7.4538 1.04086 7.60249 1.13641 7.69784L2.30726 8.86629C2.59219 8.86629 2.85848 8.86629 3.10732 8.86807C3.75046 8.87265 4.27702 8.88909 4.70746 8.94801C6.2928 9.16501 7.10766 9.95829 7.10766 12.8582V32.792C7.10766 32.9558 7.24153 33.0823 7.40534 33.0803L9.24117 33.0578L11.5413 25.3662L12.1747 22.248C12.4816 22.4628 12.8001 22.658 13.1276 22.8333C15.5694 24.1399 18.512 24.3348 20.8522 23.2336C21.1991 23.0704 21.5328 22.8787 21.8496 22.658L22.1237 25.3662L25.7759 33.0839H28.0575C28.2515 33.0839 28.3923 32.8994 28.3412 32.7123L26.8426 27.2291L27.9094 20.5759V16.5839C27.9094 15.7854 27.6427 13.5128 24.7091 13.5128H19.1252C18.9844 13.5128 18.8831 13.6481 18.9306 13.7806C18.9829 13.9265 19.0478 14.09 19.1252 14.2628C19.1672 14.3566 19.213 14.4532 19.2625 14.5513C19.2645 14.5552 19.2665 14.5591 19.2685 14.563C19.584 15.1847 20.0497 15.8606 20.6706 16.2519C20.996 16.457 21.3641 16.5839 21.7755 16.5839C21.7755 16.5839 21.4487 17.0188 20.8689 17.4954C20.1658 18.0735 19.0907 18.7129 17.7752 18.7129C13.7749 18.7129 12.1747 14.9872 12.1747 12.0597C12.1747 11.002 12.3488 9.87472 12.7725 8.86629C13.018 8.28207 13.3472 7.73773 13.7749 7.26989C14.5382 6.43493 16.1432 5.67268 17.7752 5.67268C20.5972 5.67268 22.2052 6.08321 24.6781 8.0142C24.7706 8.08642 24.8643 8.16077 24.9593 8.2373C25.1272 8.37259 25.2993 8.51471 25.4762 8.66398C25.5134 8.69547 25.5509 8.72727 25.5887 8.75939C25.7324 8.88182 25.9485 8.77066 25.915 8.58484C25.9047 8.52781 25.8936 8.4713 25.8817 8.41533C25.8334 8.18819 25.7724 7.96985 25.7019 7.7611C25.6563 7.62598 25.6068 7.49488 25.5542 7.36802C24.9461 5.90056 23.9329 5 23.9329 5C20.6429 1.71696 16.4159 0.475161 10.6084 1.29397C6.60564 1.85833 3.23438 3.89751 1.09372 7.33917L0.201889 6.78447C2.52038 3.05689 6.17736 0.858063 10.4618 0.25399C16.5091 -0.598628 21.087 0.686826 24.6577 4.23952C24.6599 4.24159 24.6623 4.24378 24.6648 4.24609C24.6821 4.2621 24.7051 4.28375 24.733 4.31087C24.7889 4.36506 24.8651 4.44138 24.9557 4.53854C25.1364 4.73238 25.3775 5.01208 25.6316 5.36755C26.1352 6.07226 26.7166 7.11215 26.9486 8.39841C27.0529 8.97688 26.7486 9.48471 26.3078 9.71692C25.88 9.9423 25.3234 9.91297 24.9077 9.55898C23.4342 8.30409 22.3757 7.62015 21.3572 7.23226C20.3485 6.8481 19.2974 6.72295 17.7752 6.72295C16.4121 6.72295 15.0974 7.37972 14.5501 7.97852C14.2153 8.34471 13.9469 8.78254 13.7408 9.2731C13.3828 10.1252 13.225 11.1084 13.225 12.0597C13.225 13.3571 13.5843 14.7993 14.3378 15.8854C15.0638 16.9319 16.1565 17.6627 17.7752 17.6627C18.567 17.6627 19.2745 17.3469 19.8437 16.9545C19.5502 16.7309 19.2998 16.4744 19.0918 16.2206C18.5164 15.5184 18.1435 14.6968 17.942 14.1351C17.6328 13.273 18.3064 12.4625 19.1252 12.4625H24.7091C26.4965 12.4625 27.645 13.1824 28.2904 14.1773C28.8853 15.0941 28.9596 16.1021 28.9596 16.5839V20.6596L27.9156 27.1712L29.3543 32.4354C29.5881 33.2908 28.9443 34.1342 28.0575 34.1342H25.111L21.097 25.652L20.9636 24.3338C18.4434 25.3853 15.4386 25.1579 12.9104 23.9022L12.5611 25.6217L10.0262 34.0985L7.41821 34.1304C6.69691 34.1393 6.05739 33.5681 6.05739 32.792V12.8582C6.05739 11.4605 5.85148 10.8064 5.635 10.4897C5.46937 10.2474 5.21136 10.077 4.56502 9.98857C4.20842 9.93976 3.74224 9.92289 3.09983 9.91831C2.85544 9.91656 2.59306 9.91656 2.30726 9.91656H1.87285Z" fill="white"/>
<path d="M7.94354 5.40997C7.94354 5.97604 7.48465 6.43493 6.91858 6.43493C6.35251 6.43493 5.89362 5.97604 5.89362 5.40997C5.89362 4.8439 6.35251 4.38501 6.91858 4.38501C7.48465 4.38501 7.94354 4.8439 7.94354 5.40997Z" fill="#3E9362"/>
<path fill-rule="evenodd" clip-rule="evenodd" d="M6.89569 5.3998C6.89379 5.40429 6.89327 5.40841 6.89327 5.40997C6.89327 5.41153 6.89379 5.41566 6.89569 5.42014C6.89729 5.42393 6.89916 5.42634 6.90068 5.42786C6.90221 5.42939 6.90462 5.43125 6.9084 5.43286C6.91289 5.43475 6.91702 5.43528 6.91858 5.43528C6.92013 5.43528 6.92426 5.43475 6.92875 5.43286C6.93254 5.43125 6.93494 5.42939 6.93647 5.42786C6.938 5.42634 6.93986 5.42393 6.94146 5.42014C6.94336 5.41566 6.94388 5.41153 6.94388 5.40997C6.94388 5.40841 6.94336 5.40429 6.94146 5.3998C6.93986 5.39601 6.938 5.3936 6.93647 5.39208C6.93494 5.39055 6.93254 5.38869 6.92875 5.38709C6.92426 5.38519 6.92013 5.38467 6.91858 5.38467C6.91702 5.38467 6.91289 5.38519 6.9084 5.38709C6.90462 5.38869 6.90221 5.39055 6.90068 5.39208C6.89916 5.3936 6.89729 5.39601 6.89569 5.3998ZM6.91858 6.43493C7.48465 6.43493 7.94354 5.97604 7.94354 5.40997C7.94354 4.8439 7.48465 4.38501 6.91858 4.38501C6.35251 4.38501 5.89362 4.8439 5.89362 5.40997C5.89362 5.97604 6.35251 6.43493 6.91858 6.43493Z" fill="white"/>
<path d="M11.6436 6.23434C13.6265 5.79609 14.6239 6.42032 15.1537 8.81758C13.0561 9.28118 12.1652 8.59414 11.6436 6.23434Z" fill="#3E9362"/>
<path fill-rule="evenodd" clip-rule="evenodd" d="M10.3915 5.43546L11.417 5.2088C12.513 4.96657 13.6266 4.94801 14.5525 5.60689C15.4446 6.24166 15.8996 7.32555 16.1793 8.59089L16.4059 9.61641L15.3804 9.84307C14.2335 10.0966 13.1022 10.1121 12.1813 9.42772C11.307 8.77804 10.8882 7.68283 10.6182 6.46098L10.3915 5.43546ZM12.6911 6.10441C12.3766 6.10419 12.0287 6.14922 11.6437 6.23432C11.7278 6.61473 11.8214 6.95167 11.9282 7.24733C12.3612 8.44625 13.0098 8.96633 14.1077 8.95341C14.4186 8.94975 14.7655 8.90336 15.1538 8.81755C15.0695 8.43643 14.9735 8.10012 14.8635 7.80577C14.4162 6.60817 13.7387 6.10514 12.6911 6.10441Z" fill="#FAFAFA"/>
</svg>
