<svg width="208" height="216" viewBox="0 0 208 216" fill="none" xmlns="http://www.w3.org/2000/svg">
<path fill-rule="evenodd" clip-rule="evenodd" d="M112.589 118.905C85.6591 118.905 74.8873 93.8241 74.8873 74.1173C74.8873 68.7595 75.5508 63.1369 77.0942 57.7895C76.356 57.3834 75.6341 56.9212 74.9304 56.3984C69.0447 52.0248 66.2256 44.652 64.4077 36.4267L62.8818 29.5231L69.7855 27.9973C77.1634 26.3666 84.6601 26.2417 90.8933 30.6772C92.6215 31.9069 94.1061 33.3871 95.389 35.0748C100.44 32.7038 106.486 31.1206 112.589 31.1206C133.817 31.1206 144.841 34.5715 165.188 51.8998C166.155 52.7239 167.61 51.9756 167.384 50.7247C164.748 36.109 154.042 26.5921 154.042 26.5921C131.894 4.49126 103.438 -3.86834 64.3432 1.64375C37.3969 5.44295 14.7021 19.1704 0.291574 42.3391C-0.188377 43.1108 -0.0642842 44.1117 0.578944 44.7536L8.4609 52.6194C10.379 52.6194 12.1717 52.6194 13.8468 52.6314C18.1763 52.6622 21.721 52.7729 24.6187 53.1695C35.291 54.6303 40.7764 59.9706 40.7764 79.4924V213.683C40.7764 214.786 41.6776 215.638 42.7804 215.624L55.1389 215.473L70.6233 163.694L72.5596 154.162L72.5597 154.163L74.8875 142.703C94.6358 156.528 121.565 158.32 140.017 145.463L141.862 163.694L166.448 215.649H181.808C183.113 215.649 184.062 214.407 183.717 213.147L175.519 183.151L175.52 183.152L173.629 176.235L180.81 131.447L180.811 131.447V129.41L180.81 129.41V104.573C180.81 99.198 179.015 83.8987 159.267 83.8987H121.676C120.729 83.8987 120.047 84.8095 120.367 85.7014C122.766 92.392 129.06 104.573 139.518 104.573C139.518 104.573 128.746 118.905 112.589 118.905ZM94.942 52.2914C88.1696 53.7882 83.2657 53.5032 79.6085 51.0488L79.6083 51.049C76.8688 49.2109 74.8287 46.1557 73.2267 41.7203C72.5079 39.73 71.8773 37.4617 71.3113 34.9009C73.9032 34.328 76.2449 34.0249 78.3621 34.0263C80.4445 34.0278 82.3096 34.324 83.9817 34.9483C84.1546 35.0129 84.3256 35.081 84.4944 35.1527C89.5817 37.3102 92.8193 42.687 94.942 52.2914ZM41.5481 28.4622C41.5481 31.5604 39.0365 34.072 35.9383 34.072C32.84 34.072 30.3284 31.5604 30.3284 28.4622C30.3284 25.3639 32.84 22.8523 35.9383 22.8523C39.0365 22.8523 41.5481 25.3639 41.5481 28.4622ZM73.9991 177.084L76.2881 213.534C76.3763 214.939 77.8626 215.806 79.1293 215.19L90.1257 209.845L94.2552 159.153C89.3004 157.912 84.4524 156.13 79.8401 153.839L77.4887 165.414L73.9991 177.084ZM197.616 204.017L185.399 192.48L180.852 175.845L185.418 147.373L188.91 161.904L208 191.317L200.675 203.592C200.026 204.68 198.537 204.887 197.616 204.017ZM14.4634 60.326C14.4688 60.1084 14.4741 59.8993 14.4788 59.6992L14.7967 59.7013C19.1213 59.7322 22.2595 59.8457 24.6601 60.1743C25.0316 60.2252 25.384 60.2801 25.7186 60.3389V84.5605C13.8571 84.5605 14.2797 67.6699 14.4634 60.326Z" fill="#3A7D55"/>
</svg>
