<svg width="188" height="61" viewBox="0 0 188 61" fill="none" xmlns="http://www.w3.org/2000/svg">
<rect width="188" height="61" rx="5" fill="white"/>
<path d="M34.0493 25.7672V40.0424C34.0493 41.2573 33.7878 42.3456 33.2647 43.3074C32.7585 44.2861 31.9992 45.0539 30.9867 45.6107C29.9912 46.1675 28.7931 46.4459 27.3926 46.4459C26.0258 46.4459 24.8194 46.3785 23.7732 46.2435C22.727 46.1085 21.7483 45.8722 20.8372 45.5348V41.4851C21.7315 41.8563 22.6342 42.1263 23.5454 42.295C24.4566 42.4637 25.275 42.5481 26.0005 42.5481C27.2661 42.5481 28.1857 42.3119 28.7594 41.8394C29.35 41.3669 29.6453 40.6836 29.6453 39.7892V38.6503C28.4472 39.5615 27.1648 40.017 25.7981 40.017C23.7901 40.017 22.1871 39.4265 20.989 38.2453C19.8079 37.0473 19.2173 35.1911 19.2173 32.677C19.2173 31.0908 19.4957 29.7494 20.0525 28.6526C20.6262 27.5558 21.4024 26.7374 22.3811 26.1974C23.3767 25.6406 24.5156 25.3622 25.7981 25.3622C27.1648 25.3622 28.4472 25.8178 29.6453 26.729V25.7672H34.0493ZM26.7599 36.1192C27.7217 36.1192 28.6835 35.7733 29.6453 35.0815V30.2978C28.6835 29.6059 27.7217 29.26 26.7599 29.26C25.7812 29.26 25.0387 29.5553 24.5325 30.1459C24.0432 30.7196 23.7985 31.5633 23.7985 32.677C23.7985 33.9425 24.0347 34.8368 24.5072 35.3599C24.9965 35.8661 25.7474 36.1192 26.7599 36.1192Z" fill="#74B776"/>
<path d="M46.4654 25.4634V29.3613H45.8832C44.584 29.3613 43.2847 29.8253 41.9854 30.7533V40.093H37.5813V25.7672H41.9854V27.0327C42.6097 26.5096 43.2341 26.1215 43.8584 25.8684C44.4996 25.5984 45.1745 25.4634 45.8832 25.4634H46.4654Z" fill="#74B776"/>
<path d="M52.848 34.2968C53.0336 35.1068 53.4133 35.7395 53.987 36.1951C54.5776 36.6507 55.4381 36.8785 56.5687 36.8785C57.2268 36.8785 57.8511 36.8026 58.4417 36.6507C59.0491 36.482 59.7409 36.2036 60.5171 35.8155L61.6561 39.2071C60.7787 39.6964 59.9097 40.0339 59.0491 40.2195C58.1886 40.422 57.1593 40.5233 55.9612 40.5233C54.2907 40.5233 52.8649 40.2111 51.6837 39.5868C50.5194 38.9456 49.6336 38.0512 49.0261 36.9038C48.4186 35.7564 48.1149 34.4234 48.1149 32.9048C48.1149 31.3186 48.4271 29.9603 49.0514 28.8297C49.6757 27.6823 50.5194 26.8218 51.5825 26.2481C52.6455 25.6575 53.8351 25.3622 55.1513 25.3622C57.2605 25.3622 58.9141 25.9781 60.1122 27.2099C61.3102 28.4248 61.9092 30.205 61.9092 32.5504V34.2968H52.848ZM55.1513 29.0069C54.5438 29.0069 54.046 29.1588 53.6579 29.4625C53.2867 29.7662 53.0252 30.2893 52.8733 31.0318H57.2774C57.2099 30.3231 56.999 29.8084 56.6446 29.4878C56.3071 29.1672 55.8094 29.0069 55.1513 29.0069Z" fill="#74B776"/>
<path d="M68.2964 34.2968C68.482 35.1068 68.8617 35.7395 69.4354 36.1951C70.026 36.6507 70.8865 36.8785 72.0171 36.8785C72.6751 36.8785 73.2995 36.8026 73.8901 36.6507C74.4975 36.482 75.1893 36.2036 75.9655 35.8155L77.1045 39.2071C76.2271 39.6964 75.3581 40.0339 74.4975 40.2195C73.6369 40.422 72.6076 40.5233 71.4096 40.5233C69.7391 40.5233 68.3133 40.2111 67.1321 39.5868C65.9678 38.9456 65.0819 38.0512 64.4745 36.9038C63.867 35.7564 63.5633 34.4234 63.5633 32.9048C63.5633 31.3186 63.8755 29.9603 64.4998 28.8297C65.1241 27.6823 65.9678 26.8218 67.0309 26.2481C68.0939 25.6575 69.2835 25.3622 70.5997 25.3622C72.7089 25.3622 74.3625 25.9781 75.5606 27.2099C76.7586 28.4248 77.3576 30.205 77.3576 32.5504V34.2968H68.2964ZM70.5997 29.0069C69.9922 29.0069 69.4944 29.1588 69.1063 29.4625C68.7351 29.7662 68.4736 30.2893 68.3217 31.0318H72.7258C72.6583 30.3231 72.4473 29.8084 72.093 29.4878C71.7555 29.1672 71.2577 29.0069 70.5997 29.0069Z" fill="#74B776"/>
<path d="M88.3007 25.4634C90.2074 25.4634 91.6333 25.9443 92.5782 26.9061C93.5231 27.8679 93.9956 29.395 93.9956 31.4874V40.093H89.5915V31.4874C89.5915 30.7955 89.4144 30.2724 89.06 29.9181C88.7225 29.5469 88.1404 29.3613 87.3136 29.3613C86.3349 29.3613 85.3309 29.7662 84.3016 30.5762V40.093H79.8976V25.7672H84.3016V26.9061C84.9259 26.4168 85.5587 26.054 86.1999 25.8178C86.858 25.5815 87.5583 25.4634 88.3007 25.4634Z" fill="#74B776"/>
<path d="M104.465 49.4603L103.561 35.0636L107.967 36.2177L106.942 48.8001L104.973 49.7568C104.747 49.867 104.481 49.7119 104.465 49.4603Z" fill="#3A7D55"/>
<path d="M124.623 40.2188L123.219 34.3752L117.237 37.9848L118.621 40.6174L126.182 47.7568C126.347 47.9125 126.613 47.8754 126.729 47.6808L128.04 45.4835L124.623 40.2188Z" fill="#3A7D55"/>
<path d="M119.269 16.8093H110.962C108.755 16.8093 107.199 17.5777 106.142 18.7338C105.627 19.2976 105.23 19.9535 104.934 20.6574C104.424 21.8726 104.214 23.2309 104.214 24.5054C104.214 28.0329 106.142 32.5223 110.962 32.5223C113.855 32.5223 115.783 29.9569 115.783 29.9569C113.726 29.9569 112.569 27.8192 112.248 26.7503H119.317C122.852 26.7503 123.174 28.9948 123.174 29.9569V34.7671L121.888 42.784L123.816 49.8388H120.603L116.202 40.5393L115.872 37.2759C112.569 39.5773 108.085 39.222 104.056 36.7474L103.945 40.5393L100.679 49.8073L98.1083 49.8388V25.4676C98.1083 21.9733 97.4366 21.1184 95.5263 20.8569V25.6659C93.5982 25.6659 92.9952 24.4004 92.9952 20.6574C92.6954 20.6553 92.6674 20.6574 92.324 20.6574L90.7173 19.054C96.1802 8.11964 112.521 10.0752 119.269 16.8093Z" fill="#3A7D55"/>
<path d="M110.962 32.5223C106.142 32.5223 104.214 28.0329 104.214 24.5055C104.214 23.2309 104.424 21.8726 104.934 20.6575C105.23 19.9535 105.627 19.2976 106.142 18.7339C107.062 17.7278 108.996 16.8093 110.962 16.8093C114.762 16.8093 116.735 17.427 120.377 20.5287C120.55 20.6762 120.811 20.5422 120.77 20.3183C120.299 17.7022 118.382 15.9987 118.382 15.9987C114.418 12.0428 109.324 10.5465 102.327 11.5331C97.5034 12.2131 93.4412 14.6703 90.8618 18.8174C90.7759 18.9555 90.7981 19.1346 90.9132 19.2495L92.324 20.6575C92.6674 20.6575 92.9882 20.6575 93.2881 20.6596C94.063 20.6651 94.6975 20.685 95.2162 20.7559C97.1265 21.0174 98.1083 21.9733 98.1083 25.4676V49.4871C98.1083 49.6845 98.2696 49.8368 98.467 49.8344L100.679 49.8073L103.451 40.5393L104.214 36.7819C107.749 39.2566 112.569 39.5773 115.872 37.276L116.202 40.5393L120.603 49.8388H123.352C123.586 49.8388 123.756 49.6165 123.694 49.3911L121.888 42.784L123.174 34.7672V29.9569C123.174 28.9948 122.852 26.2563 119.317 26.2563H112.589C112.419 26.2563 112.297 26.4193 112.355 26.579C112.784 27.7766 113.911 29.9569 115.783 29.9569C115.783 29.9569 113.854 32.5223 110.962 32.5223Z" fill="#3A7D55"/>
<path fill-rule="evenodd" clip-rule="evenodd" d="M91.8007 21.923L90.0193 20.1453C89.4949 19.622 89.3848 18.7959 89.7872 18.1489L90.8618 18.8173C90.7759 18.9554 90.7981 19.1346 90.9133 19.2495L92.3241 20.6574C92.6674 20.6574 92.9883 20.6574 93.2882 20.6596C94.0631 20.6651 94.6976 20.6849 95.2163 20.7559C97.1265 21.0174 98.1084 21.9733 98.1084 25.4675V49.487C98.1084 49.6844 98.2697 49.8368 98.4671 49.8344L100.679 49.8073L103.451 40.5393L104.214 36.7819C104.584 37.0407 104.968 37.276 105.362 37.4872C108.304 39.0616 111.85 39.2964 114.67 37.9696C115.088 37.7729 115.49 37.5419 115.872 37.2759L116.202 40.5393L120.603 49.8388H123.352C123.586 49.8388 123.756 49.6165 123.694 49.391L121.888 42.784L123.174 34.7671V29.9569C123.174 28.9947 122.852 26.2563 119.318 26.2563H112.589C112.419 26.2563 112.297 26.4193 112.355 26.5789C112.418 26.7548 112.496 26.9518 112.589 27.16C112.64 27.2731 112.695 27.3895 112.755 27.5076C112.757 27.5123 112.759 27.5171 112.762 27.5218C113.142 28.2709 113.703 29.0853 114.451 29.5569C114.843 29.804 115.287 29.9569 115.783 29.9569C115.783 29.9569 115.389 30.4809 114.69 31.0552C113.843 31.7517 112.547 32.5223 110.962 32.5223C106.142 32.5223 104.214 28.0329 104.214 24.5054C104.214 23.2309 104.424 21.8726 104.934 20.6574C105.23 19.9535 105.627 19.2976 106.142 18.7338C107.062 17.7277 108.996 16.8093 110.962 16.8093C114.363 16.8093 116.3 17.3039 119.28 19.6307C119.392 19.7177 119.504 19.8073 119.619 19.8995C119.821 20.0625 120.029 20.2338 120.242 20.4137C120.287 20.4516 120.332 20.4899 120.377 20.5286C120.551 20.6761 120.811 20.5422 120.771 20.3183C120.758 20.2496 120.745 20.1815 120.73 20.114C120.672 19.8403 120.599 19.5773 120.514 19.3257C120.459 19.1629 120.399 19.0049 120.336 18.8521C119.603 17.0838 118.382 15.9987 118.382 15.9987C114.418 12.0428 109.325 10.5464 102.327 11.5331C97.5035 12.2131 93.4413 14.6702 90.8618 18.8173L89.7872 18.1489C92.5809 13.6573 96.9874 11.0078 102.15 10.2799C109.437 9.25255 114.953 10.8015 119.256 15.0823C119.258 15.0848 119.261 15.0875 119.264 15.0903C119.285 15.1096 119.313 15.1356 119.346 15.1683C119.414 15.2336 119.505 15.3256 119.615 15.4427C119.832 15.6762 120.123 16.0133 120.429 16.4416C121.036 17.2907 121.736 18.5438 122.016 20.0937C122.142 20.7907 121.775 21.4026 121.244 21.6824C120.728 21.954 120.058 21.9186 119.557 21.4921C117.781 19.98 116.506 19.1559 115.279 18.6885C114.063 18.2256 112.797 18.0748 110.962 18.0748C109.32 18.0748 107.736 18.8662 107.076 19.5877C106.673 20.0289 106.349 20.5565 106.101 21.1476C105.67 22.1744 105.48 23.3591 105.48 24.5054C105.48 26.0687 105.912 27.8065 106.82 29.1153C107.695 30.3762 109.012 31.2568 110.962 31.2568C111.917 31.2568 112.769 30.8763 113.455 30.4034C113.101 30.134 112.799 29.8249 112.549 29.5191C111.856 28.6729 111.406 27.683 111.163 27.0062C110.791 25.9674 111.603 24.9907 112.589 24.9907H119.318C121.471 24.9907 122.855 25.8582 123.633 27.057C124.35 28.1618 124.439 29.3764 124.439 29.9569V34.8679L123.181 42.7142L124.915 49.0574C125.196 50.088 124.421 51.1043 123.352 51.1043H119.802L114.965 40.8836L114.804 39.2953C111.768 40.5623 108.147 40.2883 105.101 38.7752L104.68 40.8471L101.625 51.0613L98.4826 51.0998C97.6135 51.1105 96.8429 50.4222 96.8429 49.487V25.4675C96.8429 23.7833 96.5948 22.9952 96.3339 22.6136C96.1343 22.3216 95.8234 22.1163 95.0446 22.0097C94.6149 21.9509 94.0532 21.9306 93.2791 21.9251C92.9846 21.923 92.6685 21.923 92.3241 21.923H91.8007Z" fill="white"/>
<path d="M99.1156 16.4927C99.1156 17.1748 98.5626 17.7278 97.8805 17.7278C97.1985 17.7278 96.6455 17.1748 96.6455 16.4927C96.6455 15.8106 97.1985 15.2577 97.8805 15.2577C98.5626 15.2577 99.1156 15.8106 99.1156 16.4927Z" fill="#3A7D55"/>
<path fill-rule="evenodd" clip-rule="evenodd" d="M97.853 16.4805C97.8507 16.4859 97.8501 16.4909 97.8501 16.4927C97.8501 16.4946 97.8507 16.4996 97.853 16.505C97.8549 16.5096 97.8571 16.5125 97.859 16.5143C97.8608 16.5161 97.8637 16.5184 97.8683 16.5203C97.8737 16.5226 97.8787 16.5232 97.8805 16.5232C97.8824 16.5232 97.8874 16.5226 97.8928 16.5203C97.8974 16.5184 97.9003 16.5161 97.9021 16.5143C97.9039 16.5125 97.9062 16.5096 97.9081 16.505C97.9104 16.4996 97.911 16.4946 97.911 16.4927C97.911 16.4909 97.9104 16.4859 97.9081 16.4805C97.9062 16.4759 97.9039 16.473 97.9021 16.4712C97.9003 16.4693 97.8974 16.4671 97.8928 16.4652C97.8874 16.4629 97.8824 16.4622 97.8805 16.4622C97.8787 16.4622 97.8737 16.4629 97.8683 16.4652C97.8637 16.4671 97.8608 16.4693 97.859 16.4712C97.8571 16.473 97.8549 16.4759 97.853 16.4805ZM97.8805 17.7278C98.5626 17.7278 99.1156 17.1748 99.1156 16.4927C99.1156 15.8106 98.5626 15.2577 97.8805 15.2577C97.1985 15.2577 96.6455 15.8106 96.6455 16.4927C96.6455 17.1748 97.1985 17.7278 97.8805 17.7278Z" fill="white"/>
<path d="M103.574 17.486C105.963 16.958 107.165 17.7101 107.804 20.5987C105.276 21.1574 104.203 20.3295 103.574 17.486Z" fill="#3A7D55"/>
<path fill-rule="evenodd" clip-rule="evenodd" d="M102.065 16.5234L103.301 16.2502C104.622 15.9584 105.963 15.936 107.079 16.7299C108.154 17.4948 108.702 18.8009 109.039 20.3255L109.312 21.5613L108.077 21.8344C106.695 22.1398 105.332 22.1585 104.222 21.3339C103.168 20.551 102.664 19.2314 102.338 17.7591L102.065 16.5234ZM104.836 17.3294C104.457 17.3291 104.038 17.3834 103.574 17.486C103.675 17.9443 103.788 18.3503 103.917 18.7066C104.439 20.1513 105.22 20.7779 106.543 20.7624C106.918 20.758 107.336 20.7021 107.804 20.5987C107.702 20.1394 107.586 19.7342 107.454 19.3795C106.915 17.9364 106.099 17.3303 104.836 17.3294Z" fill="#FAFAFA"/>
<path fill-rule="evenodd" clip-rule="evenodd" d="M125.905 36.3038C126.547 37.5499 127.491 38.5394 128.733 39.2695L128.735 39.2712C129.985 39.9878 131.496 40.338 133.256 40.338C134.999 40.338 136.502 39.9875 137.751 39.2712L137.753 39.2695C138.995 38.539 139.932 37.5485 140.556 36.3006C141.176 35.0604 141.483 33.6705 141.483 32.1374C141.483 30.6212 141.176 29.2402 140.556 28.0004C139.932 26.7524 138.995 25.7702 137.752 25.0571C136.503 24.3226 135 23.9631 133.256 23.9631C131.496 23.9631 129.984 24.3223 128.734 25.0571C127.492 25.7698 126.547 26.751 125.905 27.9973L125.904 28.0004C125.284 29.2402 124.977 30.6212 124.977 32.1374C124.977 33.6705 125.283 35.0604 125.904 36.3006L125.905 36.3038ZM133.256 24.2668C134.958 24.2668 136.406 24.6178 137.599 25.3197C138.793 26.0041 139.688 26.943 140.284 28.1363C140.881 29.3296 141.179 30.6633 141.179 32.1374C141.179 33.629 140.881 34.9715 140.284 36.1648C139.688 37.3581 138.793 38.3058 137.599 39.0077C136.705 39.521 135.666 39.8418 134.485 39.9701C135.666 39.8418 136.704 39.521 137.599 39.0077C138.793 38.3058 139.688 37.3581 140.284 36.1648C140.881 34.9715 141.179 33.629 141.179 32.1374C141.179 30.6633 140.881 29.3296 140.284 28.1363C139.688 26.943 138.793 26.0041 137.599 25.3197C136.406 24.6178 134.958 24.2668 133.256 24.2668C132.892 24.2668 132.539 24.2826 132.198 24.3141C132.539 24.2825 132.892 24.2668 133.256 24.2668ZM136.111 32.1374C136.111 33.3994 135.846 34.3128 135.361 34.9229L135.358 34.9267C134.901 35.5211 134.218 35.8348 133.256 35.8348C132.275 35.8348 131.573 35.5198 131.099 34.9229C130.614 34.3128 130.348 33.3994 130.348 32.1374C130.348 30.8941 130.613 29.9889 131.099 29.3782C131.573 28.7813 132.275 28.4663 133.256 28.4663C134.218 28.4663 134.901 28.78 135.358 29.3744L135.361 29.3782C135.847 29.9889 136.111 30.8941 136.111 32.1374ZM151.769 39.8905H156.957V30.8212C156.957 29.4653 156.788 28.3278 156.436 27.421C156.069 26.4761 155.332 25.7417 154.264 25.2074C153.2 24.6481 151.677 24.3842 149.73 24.3842C149.73 24.3842 144.882 24.4004 143.499 25.3966V29.6069C143.499 29.7391 143.66 29.8129 143.769 29.7367C145.552 28.4805 149.335 28.7558 149.335 28.7558C150.232 28.8634 150.547 28.9946 150.848 29.1199C150.875 29.1315 150.903 29.143 150.931 29.1545L150.935 29.1562C151.289 29.2947 151.473 29.4752 151.555 29.6734L151.559 29.6836L151.564 29.6936C151.631 29.8271 151.684 29.9993 151.721 30.2147C150.77 29.8168 149.666 29.6225 148.414 29.6225C146.627 29.6225 145.188 30.0651 144.134 30.9875L144.132 30.9893C143.087 31.92 142.582 33.2398 142.582 34.9013C142.582 36.5452 143.078 37.8695 144.099 38.8337L144.103 38.8376C145.139 39.7793 146.545 40.2327 148.282 40.2327C149.034 40.2327 149.729 40.1134 150.365 39.8705L150.368 39.8691L150.372 39.8677C150.839 39.6754 151.304 39.3954 151.769 39.0318V39.8905ZM149.73 24.688C151.66 24.688 153.126 24.9512 154.126 25.4776C155.144 25.9866 155.819 26.671 156.153 27.5308C156.486 28.3907 156.653 29.4875 156.653 30.8212V39.5868H156.653V30.8212C156.653 29.4875 156.486 28.3907 156.153 27.5309C155.819 26.671 155.143 25.9866 154.126 25.4777C153.125 24.9512 151.66 24.688 149.73 24.688H146.334V24.688H149.73ZM152.072 30.7158C151.971 30.6623 151.867 30.6115 151.761 30.5635C150.822 30.1386 149.706 29.9262 148.414 29.9262C148.354 29.9262 148.295 29.9268 148.236 29.9278C148.295 29.9268 148.354 29.9263 148.414 29.9263C149.853 29.9263 151.072 30.1895 152.072 30.716C152.072 30.7159 152.072 30.7159 152.072 30.7158ZM149.066 39.8809C149.487 39.8274 149.883 39.7294 150.256 39.5868C150.754 39.3817 151.259 39.0666 151.769 38.6414C151.87 38.5573 151.971 38.4688 152.072 38.3761V38.376C151.458 38.9375 150.853 39.3411 150.256 39.5868C149.883 39.7294 149.486 39.8274 149.066 39.8809ZM148.227 33.8545L148.231 33.8516L148.235 33.8486C148.514 33.6254 148.929 33.494 149.519 33.494C150.272 33.494 151.021 33.6578 151.769 33.99V35.0457C150.861 35.7648 150.025 36.098 149.256 36.098C148.73 36.098 148.376 35.9902 148.151 35.8182C147.961 35.6733 147.822 35.3855 147.822 34.8487C147.822 34.3532 147.974 34.0447 148.227 33.8545ZM149.34 36.4005C149.312 36.4013 149.284 36.4017 149.256 36.4017C148.694 36.4017 148.264 36.2877 147.966 36.0595C147.668 35.8314 147.519 35.4278 147.519 34.8487C147.519 34.2871 147.694 33.8747 148.045 33.6115C148.282 33.4217 148.584 33.2961 148.949 33.2346C148.584 33.2961 148.282 33.4217 148.045 33.6115C147.694 33.8747 147.519 34.2871 147.519 34.8487C147.519 35.4278 147.668 35.8314 147.966 36.0595C148.265 36.2876 148.695 36.4017 149.256 36.4017C149.284 36.4017 149.312 36.4013 149.34 36.4005ZM161.211 20.213H165.791V25.2144H169.16V29.2682L169.161 29.2682V25.2144H165.791V20.213H161.211V20.213ZM165.791 29.2682L165.791 29.2682V34.2959C165.791 34.875 165.888 35.2874 166.081 35.5331C166.274 35.7612 166.625 35.8753 167.134 35.8753C167.134 35.8753 167.134 35.8753 167.134 35.8753C166.625 35.8753 166.274 35.7612 166.081 35.5331C165.888 35.2874 165.791 34.875 165.791 34.2959V29.2682ZM168.687 35.6647V39.5605C168.687 39.5605 168.687 39.5605 168.687 39.5605V35.6647C168.687 35.6647 168.687 35.6647 168.687 35.6647ZM167.134 35.5715C166.659 35.5715 166.423 35.4637 166.316 35.3409C166.19 35.1768 166.095 34.8525 166.095 34.2959V29.5719H169.464V24.9107H166.095V19.9093H160.907V24.9107H158.854V29.5719H160.907V35.9542C160.907 37.2973 161.305 38.3713 162.139 39.1274L162.141 39.1297C162.992 39.8833 164.245 40.2327 165.844 40.2327C166.33 40.2327 166.784 40.197 167.205 40.1242C167.635 40.0702 168.15 39.9811 168.748 39.858L168.991 39.8081V35.2534L168.597 35.3744C168.176 35.5042 167.689 35.5715 167.134 35.5715ZM133.769 36.1079C134.553 36.0102 135.163 35.6782 135.599 35.1119C136.143 34.4275 136.415 33.436 136.415 32.1374C136.415 30.8563 136.143 29.8736 135.599 29.1892C135.072 28.5048 134.292 28.1626 133.256 28.1626C132.203 28.1626 131.405 28.5048 130.861 29.1892C130.317 29.8736 130.045 30.8563 130.045 32.1374C130.045 33.436 130.317 34.4275 130.861 35.1119C131.405 35.7963 132.203 36.1385 133.256 36.1385C133.321 36.1385 133.385 36.1371 133.447 36.1345C133.385 36.1372 133.321 36.1385 133.256 36.1385C132.203 36.1385 131.405 35.7963 130.861 35.1119C130.317 34.4275 130.045 33.436 130.045 32.1374C130.045 30.8563 130.317 29.8736 130.861 29.1892C131.405 28.5048 132.203 28.1626 133.256 28.1626C134.291 28.1626 135.072 28.5048 135.599 29.1892C136.143 29.8736 136.415 30.8563 136.415 32.1374C136.415 33.436 136.143 34.4275 135.599 35.1119C135.163 35.6782 134.553 36.0102 133.769 36.1079Z" fill="#3A7D55"/>
</svg>
